#N canvas 892 342 298 268 10;
#X obj 48 197 mrpeach/udpsend;
#X obj 48 127 mrpeach/packOSC;
#X obj 48 230 tgl 15 0 empty empty empty 17 7 0 10 -262144 -1 -1 1
1;
#X msg 144 174 disconnect;
#X msg 141 148 connect 127.0.0.1 9997;
#X obj 44 19 key;
#X floatatom 8 102 5 0 0 0 - - -;
#X obj 181 100 loadbang;
#X msg 44 101 send /condition \$1;
#X obj 44 64 -;
#X floatatom 59 40 5 0 0 0 - - -;
#X connect 0 0 2 0;
#X connect 1 0 0 0;
#X connect 3 0 0 0;
#X connect 4 0 0 0;
#X connect 5 0 9 0;
#X connect 7 0 4 0;
#X connect 8 0 1 0;
#X connect 9 0 8 0;
#X connect 9 0 6 0;
#X connect 10 0 9 1;
